<svg width="25" height="24" viewBox="0 0 25 24" fill="none" xmlns="http://www.w3.org/2000/svg">
<path d="M12.5 9.024C11.8869 9.024 11.2875 9.19854 10.7777 9.52555C10.2679 9.85255 9.8706 10.3173 9.63597 10.8611C9.40134 11.4049 9.33995 12.0033 9.45957 12.5806C9.57918 13.1579 9.87443 13.6881 10.308 14.1044C10.7415 14.5206 11.2939 14.804 11.8952 14.9188C12.4966 15.0336 13.1199 14.9747 13.6863 14.7495C14.2528 14.5242 14.7369 14.1428 15.0776 13.6534C15.4182 13.164 15.6 12.5886 15.6 12C15.6 11.6092 15.5198 11.2222 15.364 10.8611C15.2082 10.5001 14.9799 10.172 14.692 9.89565C14.4042 9.6193 14.0624 9.40009 13.6863 9.25053C13.3102 9.10098 12.9071 9.024 12.5 9.024ZM24.9125 6.084C24.9059 5.15731 24.7282 4.23909 24.3875 3.372C24.1366 2.73751 23.7484 2.16131 23.2485 1.68142C22.7486 1.20153 22.1484 0.828861 21.4875 0.588C20.5843 0.260957 19.6278 0.0903131 18.6625 0.0839999C17.05 -8.19564e-08 16.575 0 12.5 0C8.425 0 7.95 -8.19564e-08 6.3375 0.0839999C5.3722 0.0903131 4.41571 0.260957 3.5125 0.588C2.85157 0.828861 2.25137 1.20153 1.75148 1.68142C1.2516 2.16131 0.863397 2.73751 0.6125 3.372C0.27183 4.23909 0.0940761 5.15731 0.0874999 6.084C-8.19564e-08 7.632 0 8.088 0 12C0 15.912 -8.19564e-08 16.368 0.0874999 17.916C0.100955 18.846 0.278468 19.767 0.6125 20.64C0.862285 21.2716 1.25016 21.8444 1.75 22.32C2.24774 22.8028 2.84924 23.1754 3.5125 23.412C4.41571 23.739 5.3722 23.9097 6.3375 23.916C7.95 24 8.425 24 12.5 24C16.575 24 17.05 24 18.6625 23.916C19.6278 23.9097 20.5843 23.739 21.4875 23.412C22.1508 23.1754 22.7523 22.8028 23.25 22.32C23.7498 21.8444 24.1377 21.2716 24.3875 20.64C24.7278 19.7687 24.9056 18.8466 24.9125 17.916C25 16.368 25 15.912 25 12C25 8.088 25 7.632 24.9125 6.084ZM21.7375 15.684C21.6974 16.4245 21.5328 17.1539 21.25 17.844C21.0073 18.4196 20.6466 18.9425 20.1892 19.3816C19.7318 19.8207 19.1871 20.167 18.5875 20.4C17.8619 20.6563 17.0978 20.7981 16.325 20.82C15.3375 20.82 15.075 20.82 12.5 20.82C9.925 20.82 9.6625 20.82 8.675 20.82C7.90216 20.7981 7.13811 20.6563 6.4125 20.4C5.79263 20.1789 5.23285 19.8261 4.775 19.368C4.32208 18.9375 3.97231 18.4174 3.75 17.844C3.48195 17.1481 3.33826 16.4138 3.325 15.672C3.325 14.724 3.325 14.472 3.325 12C3.325 9.528 3.325 9.276 3.325 8.328C3.33826 7.58619 3.48195 6.85186 3.75 6.156C3.98035 5.56092 4.34784 5.02353 4.825 4.584C5.27542 4.15155 5.81658 3.81611 6.4125 3.6C7.13811 3.34369 7.90216 3.20185 8.675 3.18C9.6625 3.18 9.925 3.18 12.5 3.18C15.075 3.18 15.3375 3.18 16.325 3.18C17.0978 3.20185 17.8619 3.34369 18.5875 3.6C19.2074 3.82114 19.7672 4.17393 20.225 4.632C20.6779 5.0625 21.0277 5.58256 21.25 6.156C21.517 6.85259 21.6647 7.58608 21.6875 8.328C21.6875 9.276 21.6875 9.528 21.6875 12C21.6875 14.472 21.775 14.724 21.7375 15.672V15.684ZM19.7375 6.756C19.5887 6.36838 19.354 6.01637 19.0497 5.72426C18.7454 5.43214 18.3788 5.20688 17.975 5.064C17.4206 4.87951 16.8367 4.79015 16.25 4.8C15.275 4.8 15 4.8 12.5 4.8C10 4.8 9.725 4.8 8.75 4.8C8.16033 4.80553 7.57634 4.91116 7.025 5.112C6.62741 5.24839 6.26462 5.46446 5.96073 5.74584C5.65684 6.02723 5.41883 6.36749 5.2625 6.744C5.08097 7.27844 4.99229 7.83791 5 8.4C5 9.336 5 9.6 5 12C5 14.4 5 14.664 5 15.6C5.01239 16.1654 5.12221 16.725 5.325 17.256C5.47383 17.6436 5.70848 17.9956 6.01277 18.2877C6.31705 18.5799 6.68373 18.8051 7.0875 18.948C7.62083 19.1363 8.18207 19.2416 8.75 19.26C9.725 19.26 10 19.26 12.5 19.26C15 19.26 15.275 19.26 16.25 19.26C16.8397 19.2545 17.4237 19.1488 17.975 18.948C18.3788 18.8051 18.7454 18.5799 19.0497 18.2877C19.354 17.9956 19.5887 17.6436 19.7375 17.256C19.9467 16.7267 20.0567 16.1661 20.0625 15.6C20.0625 14.664 20.0625 14.4 20.0625 12C20.0625 9.6 20.0625 9.336 20.0625 8.4C20.0629 7.83336 19.9526 7.27167 19.7375 6.744V6.756ZM12.5 16.584C11.8735 16.584 11.2532 16.4653 10.6746 16.2348C10.0959 16.0043 9.57038 15.6665 9.12798 15.2407C8.68557 14.8148 8.33503 14.3094 8.09643 13.7533C7.85783 13.1972 7.73585 12.6014 7.7375 12C7.7375 11.0929 8.01787 10.2061 8.54311 9.45202C9.06835 8.69793 9.81484 8.1104 10.6881 7.7638C11.5613 7.4172 12.5221 7.32713 13.4487 7.50498C14.3753 7.68283 15.2261 8.1206 15.8934 8.76289C16.5607 9.40517 17.0144 10.2231 17.1973 11.1131C17.3801 12.0031 17.2838 12.9251 16.9204 13.7626C16.5571 14.6 15.9431 15.315 15.1562 15.8173C14.3694 16.3195 13.4449 16.5864 12.5 16.584ZM17.5 8.316C17.2237 8.28792 16.968 8.16267 16.7821 7.96437C16.5963 7.76606 16.4934 7.50875 16.4934 7.242C16.4934 6.97525 16.5963 6.71794 16.7821 6.51964C16.968 6.32134 17.2237 6.19608 17.5 6.168C17.7763 6.19608 18.032 6.32134 18.2179 6.51964C18.4037 6.71794 18.5066 6.97525 18.5066 7.242C18.5066 7.50875 18.4037 7.76606 18.2179 7.96437C18.032 8.16267 17.7763 8.28792 17.5 8.316Z" fill="white"/>
</svg>
