<svg width="19" height="24" viewBox="0 0 19 24" fill="none" xmlns="http://www.w3.org/2000/svg">
<path d="M9.5 0C13.4306 0 16.625 3.04 16.625 6.8C16.625 11.8971 9.5 19.4286 9.5 19.4286C9.5 19.4286 2.375 11.8971 2.375 6.8C2.375 3.04 5.56938 0 9.5 0ZM9.5 4.57143C8.87011 4.57143 8.26602 4.81224 7.82062 5.2409C7.37522 5.66955 7.125 6.25093 7.125 6.85714C7.125 7.46335 7.37522 8.04473 7.82062 8.47339C8.26602 8.90204 8.87011 9.14286 9.5 9.14286C10.1299 9.14286 10.734 8.90204 11.1794 8.47339C11.6248 8.04473 11.875 7.46335 11.875 6.85714C11.875 6.25093 11.6248 5.66955 11.1794 5.2409C10.734 4.81224 10.1299 4.57143 9.5 4.57143ZM19 19.4286C19 21.9543 14.7487 24 9.5 24C4.25125 24 0 21.9543 0 19.4286C0 17.9543 1.44875 16.64 3.69313 15.8057L4.45312 16.8457C3.17062 17.36 2.375 18.0686 2.375 18.8571C2.375 20.4343 5.56938 21.7143 9.5 21.7143C13.4306 21.7143 16.625 20.4343 16.625 18.8571C16.625 18.0686 15.8294 17.36 14.5469 16.8457L15.3069 15.8057C17.5512 16.64 19 17.9543 19 19.4286Z" fill="white"/>
</svg>
