<svg width="25" height="24" viewBox="0 0 25 24" fill="none" xmlns="http://www.w3.org/2000/svg">
<path d="M21.6705 4.28727C23.7273 6.26182 25 8.98909 25 12C25 15.0109 23.7273 17.7382 21.6705 19.7127L20.0682 18.1745C21.7159 16.6036 22.7273 14.4218 22.7273 12C22.7273 9.58909 21.7159 7.39636 20.0682 5.82545L21.6705 4.28727ZM18.4545 7.37455C19.6932 8.56364 20.4545 10.2 20.4545 12C20.4545 13.8 19.6932 15.4364 18.4545 16.6255L16.8523 15.0873C17.6705 14.3018 18.1818 13.2109 18.1818 12C18.1818 10.7891 17.6705 9.69818 16.8523 8.91273L18.4545 7.37455ZM13.6364 9.81818C14.2391 9.81818 14.8172 10.0481 15.2434 10.4572C15.6696 10.8664 15.9091 11.4213 15.9091 12C15.9091 12.5787 15.6696 13.1336 15.2434 13.5428C14.8172 13.9519 14.2391 14.1818 13.6364 14.1818C13.0336 14.1818 12.4555 13.9519 12.0293 13.5428C11.6031 13.1336 11.3636 12.5787 11.3636 12C11.3636 11.4213 11.6031 10.8664 12.0293 10.4572C12.4555 10.0481 13.0336 9.81818 13.6364 9.81818ZM11.9318 0C12.6853 0 13.4079 0.287337 13.9406 0.7988C14.4734 1.31026 14.7727 2.00396 14.7727 2.72727V7.63636H12.5V3.27273H2.27273V19.6364H12.5V16.3636H14.7727V21.2727C14.7727 21.996 14.4734 22.6897 13.9406 23.2012C13.4079 23.7127 12.6853 24 11.9318 24H2.84091C2.08745 24 1.36486 23.7127 0.832083 23.2012C0.299309 22.6897 0 21.996 0 21.2727V2.72727C0 2.00396 0.299309 1.31026 0.832083 0.7988C1.36486 0.287337 2.08745 0 2.84091 0H11.9318Z" fill="white"/>
</svg>
