<svg width="25" height="25" viewBox="0 0 25 25" fill="none" xmlns="http://www.w3.org/2000/svg">
<path d="M18.1547 0H6.84533C3.06476 0 0 3.05785 0 6.8299V18.1137C0 21.8858 3.06476 24.9436 6.84533 24.9436H18.1547C21.9352 24.9436 25 21.8858 25 18.1137V6.8299C25 3.05785 21.9352 0 18.1547 0Z" fill="white"/>
<path d="M11.4709 12.9551C11.1376 12.9467 10.8042 12.9655 10.4739 13.0114C9.99483 13.119 9.57469 13.4044 9.29883 13.8098C9.02297 14.2152 8.91207 14.7101 8.98863 15.1941C9.06078 15.6831 9.31644 16.1265 9.70385 16.4345C10.0913 16.7425 10.5815 16.8922 11.0753 16.8533C11.5619 16.8197 12.0177 16.604 12.3516 16.2493C12.6854 15.8945 12.8725 15.427 12.8755 14.9404C12.8755 11.9765 12.8755 9.01659 12.8755 6.05267V5.73856H15.1882C15.3335 7.69974 16.4878 8.69845 18.3768 8.96021V11.2194C17.2457 11.2054 16.1459 10.8471 15.2245 10.1925C15.2245 10.2972 15.2245 10.3737 15.2245 10.4502C15.2245 11.904 15.2245 13.3537 15.2245 14.8035C15.2549 15.7025 14.9963 16.5876 14.4865 17.3296C13.9767 18.0715 13.2425 18.6313 12.3911 18.9272C11.6168 19.2434 10.7632 19.3117 9.94827 19.1227C9.13336 18.9337 8.39746 18.4967 7.84236 17.8721C7.2472 17.2976 6.84353 16.5544 6.68613 15.7432C6.52873 14.9321 6.62521 14.0922 6.96248 13.3376C7.30451 12.4674 7.92541 11.7345 8.72844 11.253C9.53148 10.7715 10.4716 10.5686 11.4023 10.6757L11.487 10.6959L11.4709 12.9551Z" fill="#00796B"/>
</svg>
