<svg width="25" height="25" viewBox="0 0 25 25" fill="none" xmlns="http://www.w3.org/2000/svg">
<path d="M18.1547 0H6.84533C3.06476 0 0 3.05785 0 6.8299V18.1137C0 21.8858 3.06476 24.9436 6.84533 24.9436H18.1547C21.9352 24.9436 25 21.8858 25 18.1137V6.8299C25 3.05785 21.9352 0 18.1547 0Z" fill="white"/>
<path d="M11.4708 12.9553C11.1375 12.9469 10.8041 12.9657 10.4739 13.0116C9.99476 13.1192 9.57463 13.4046 9.29877 13.81C9.02291 14.2154 8.912 14.7103 8.98857 15.1943C9.06072 15.6833 9.31637 16.1267 9.70379 16.4347C10.0912 16.7428 10.5814 16.8924 11.0753 16.8535C11.5618 16.8199 12.0177 16.6042 12.3515 16.2495C12.6854 15.8947 12.8725 15.4272 12.8754 14.9406C12.8754 11.9767 12.8754 9.0168 12.8754 6.05288V5.73877H15.1881C15.3334 7.69995 16.4878 8.69866 18.3767 8.96042V11.2196C17.2456 11.2056 16.1459 10.8473 15.2244 10.1927C15.2244 10.2974 15.2244 10.3739 15.2244 10.4504C15.2244 11.9042 15.2244 13.3539 15.2244 14.8037C15.2548 15.7027 14.9962 16.5878 14.4864 17.3298C13.9767 18.0717 13.2424 18.6315 12.3911 18.9274C11.6168 19.2436 10.7631 19.3119 9.94821 19.1229C9.1333 18.9339 8.39739 18.4969 7.8423 17.8723C7.24713 17.2978 6.84347 16.5546 6.68607 15.7434C6.52867 14.9323 6.62515 14.0924 6.96242 13.3378C7.30445 12.4676 7.92534 11.7347 8.72838 11.2532C9.53142 10.7717 10.4715 10.5688 11.4022 10.6759L11.487 10.6961L11.4708 12.9553Z" fill="#032521"/>
</svg>
