<svg width="25" height="24" viewBox="0 0 25 24" fill="none" xmlns="http://www.w3.org/2000/svg">
<path d="M16.3412 0H8.67188C1.66664 0 0 1.59997 0 8.31247V15.675C0 22.4 1.65368 24 8.65882 24H16.3281C23.3334 24 25 22.4125 25 15.6875V8.325C25 1.59997 23.3463 0 16.3412 0ZM20.1823 17.125H18.3594C17.6693 17.125 17.4609 16.5875 16.224 15.4C15.1432 14.4 14.6875 14.275 14.4141 14.275C14.0365 14.275 13.9323 14.375 13.9323 14.875V16.45C13.9323 16.875 13.7891 17.125 12.6302 17.125C11.5057 17.0524 10.4152 16.7245 9.4486 16.1681C8.48196 15.6118 7.66682 14.843 7.07031 13.925C5.6542 12.2328 4.66888 10.2469 4.19274 8.12497C4.19274 7.86247 4.29688 7.62496 4.81774 7.62496H6.64063C7.10938 7.62496 7.27868 7.82497 7.46094 8.2875C8.34632 10.7875 9.8568 12.9625 10.4688 12.9625C10.7031 12.9625 10.8073 12.8625 10.8073 12.3V9.72496C10.7291 8.55 10.0781 8.44996 10.0781 8.025C10.0867 7.91288 10.1404 7.80839 10.228 7.7337C10.3155 7.659 10.4299 7.62 10.5469 7.62496H13.4115C13.8021 7.62496 13.9323 7.81246 13.9323 8.26246V11.7375C13.9323 12.1125 14.1016 12.2375 14.2187 12.2375C14.4531 12.2375 14.6354 12.1125 15.0651 11.7C15.9884 10.619 16.7429 9.4147 17.3047 8.12497C17.362 7.96978 17.4707 7.83689 17.6142 7.7466C17.7576 7.6563 17.9279 7.61358 18.099 7.62496H19.9219C20.4688 7.62496 20.5859 7.88746 20.4688 8.26246C19.8055 9.68843 18.9848 11.042 18.0209 12.3C17.8256 12.5875 17.7474 12.7375 18.0209 13.075C18.2031 13.3375 18.8412 13.85 19.2709 14.3375C19.8958 14.9359 20.4148 15.6284 20.8073 16.3875C20.9635 16.875 20.7031 17.125 20.1823 17.125Z" fill="white"/>
</svg>
