<svg width="25" height="25" viewBox="0 0 25 25" fill="none" xmlns="http://www.w3.org/2000/svg">
<path d="M11.1328 14.2578L14.8438 12.3047L11.1328 10.3516V14.2578Z" fill="white"/>
<path d="M20.3125 0H4.6875C3.44541 0.00360701 2.25522 0.498625 1.37692 1.37692C0.498625 2.25522 0.00360701 3.44541 0 4.6875L0 20.3125C0.00360701 21.5546 0.498625 22.7448 1.37692 23.6231C2.25522 24.5014 3.44541 24.9964 4.6875 25H20.3125C21.5546 24.9964 22.7448 24.5014 23.6231 23.6231C24.5014 22.7448 24.9964 21.5546 25 20.3125V4.6875C24.9964 3.44541 24.5014 2.25522 23.6231 1.37692C22.7448 0.498625 21.5546 0.00360701 20.3125 0ZM19.2617 14.4688C19.166 15.7871 18.9258 17.1484 17.2402 17.248C14.082 17.4281 10.9161 17.4281 7.75781 17.248C6.07227 17.1504 5.83203 15.7871 5.73633 14.4688C5.63815 13.1581 5.63815 11.8419 5.73633 10.5312C5.83203 9.21289 6.07227 7.85156 7.75781 7.75195C10.9161 7.5719 14.082 7.5719 17.2402 7.75195C18.9258 7.84961 19.166 9.21289 19.2617 10.5312C19.3599 11.8419 19.3599 13.1581 19.2617 14.4688Z" fill="white"/>
</svg>
