<svg width="42" height="42" viewBox="0 0 42 42" fill="none" xmlns="http://www.w3.org/2000/svg">
<g filter="url(#filter0_d_96_589)">
<path d="M34.2222 3.77778H13.4444C12.9435 3.77778 12.463 3.57877 12.1088 3.22453C11.7546 2.8703 11.5556 2.38985 11.5556 1.88889C11.5556 1.38792 11.7546 0.907478 12.1088 0.553243C12.463 0.199007 12.9435 0 13.4444 0H36.1111C36.6121 0 37.0925 0.199007 37.4468 0.553243C37.801 0.907478 38 1.38792 38 1.88889V32.1111C38 32.6121 37.801 33.0925 37.4468 33.4468C37.0925 33.801 36.6121 34 36.1111 34H5.88889C5.38792 34 4.90748 33.801 4.55324 33.4468C4.19901 33.0925 4 32.6121 4 32.1111V1.88889C4 1.38792 4.19901 0.907478 4.55324 0.553243C4.90748 0.199007 5.38792 0 5.88889 0C6.38985 0 6.8703 0.199007 7.22453 0.553243C7.57877 0.907478 7.77778 1.38792 7.77778 1.88889V30.2222H34.2222V3.77778ZM13.4444 13.2222C12.9435 13.2222 12.463 13.0232 12.1088 12.669C11.7546 12.3147 11.5556 11.8343 11.5556 11.3333C11.5556 10.8324 11.7546 10.3519 12.1088 9.99769C12.463 9.64345 12.9435 9.44444 13.4444 9.44444H28.5556C29.0565 9.44444 29.537 9.64345 29.8912 9.99769C30.2454 10.3519 30.4444 10.8324 30.4444 11.3333C30.4444 11.8343 30.2454 12.3147 29.8912 12.669C29.537 13.0232 29.0565 13.2222 28.5556 13.2222H13.4444ZM13.4444 18.8889C12.9435 18.8889 12.463 18.6899 12.1088 18.3356C11.7546 17.9814 11.5556 17.501 11.5556 17C11.5556 16.499 11.7546 16.0186 12.1088 15.6644C12.463 15.3101 12.9435 15.1111 13.4444 15.1111H28.5556C29.0565 15.1111 29.537 15.3101 29.8912 15.6644C30.2454 16.0186 30.4444 16.499 30.4444 17C30.4444 17.501 30.2454 17.9814 29.8912 18.3356C29.537 18.6899 29.0565 18.8889 28.5556 18.8889H13.4444ZM13.4444 24.5556C12.9435 24.5556 12.463 24.3565 12.1088 24.0023C11.7546 23.6481 11.5556 23.1676 11.5556 22.6667C11.5556 22.1657 11.7546 21.6853 12.1088 21.331C12.463 20.9768 12.9435 20.7778 13.4444 20.7778H22.8889C23.3899 20.7778 23.8703 20.9768 24.2245 21.331C24.5788 21.6853 24.7778 22.1657 24.7778 22.6667C24.7778 23.1676 24.5788 23.6481 24.2245 24.0023C23.8703 24.3565 23.3899 24.5556 22.8889 24.5556H13.4444Z" fill="#FFC107"/>
</g>
<defs>
<filter id="filter0_d_96_589" x="0" y="0" width="42" height="42" filterUnits="userSpaceOnUse" color-interpolation-filters="sRGB">
<feFlood flood-opacity="0" result="BackgroundImageFix"/>
<feColorMatrix in="SourceAlpha" type="matrix" values="0 0 0 0 0 0 0 0 0 0 0 0 0 0 0 0 0 0 127 0" result="hardAlpha"/>
<feOffset dy="4"/>
<feGaussianBlur stdDeviation="2"/>
<feComposite in2="hardAlpha" operator="out"/>
<feColorMatrix type="matrix" values="0 0 0 0 0 0 0 0 0 0 0 0 0 0 0 0 0 0 0.25 0"/>
<feBlend mode="normal" in2="BackgroundImageFix" result="effect1_dropShadow_96_589"/>
<feBlend mode="normal" in="SourceGraphic" in2="effect1_dropShadow_96_589" result="shape"/>
</filter>
</defs>
</svg>
