<svg width="19" height="23" viewBox="0 0 19 23" fill="none" xmlns="http://www.w3.org/2000/svg">
<path d="M9.5 0C13.4306 0 16.625 2.88056 16.625 6.44336C16.625 11.2732 9.5 18.4096 9.5 18.4096C9.5 18.4096 2.375 11.2732 2.375 6.44336C2.375 2.88056 5.56938 0 9.5 0ZM9.5 4.33167C8.87011 4.33167 8.26602 4.55985 7.82062 4.96603C7.37522 5.3722 7.125 5.92309 7.125 6.4975C7.125 7.07192 7.37522 7.62281 7.82062 8.02898C8.26602 8.43515 8.87011 8.66334 9.5 8.66334C10.1299 8.66334 10.734 8.43515 11.1794 8.02898C11.6248 7.62281 11.875 7.07192 11.875 6.4975C11.875 5.92309 11.6248 5.3722 11.1794 4.96603C10.734 4.55985 10.1299 4.33167 9.5 4.33167ZM19 18.4096C19 20.8028 14.7487 22.7413 9.5 22.7413C4.25125 22.7413 0 20.8028 0 18.4096C0 17.0126 1.44875 15.7673 3.69313 14.9767L4.45312 15.9622C3.17062 16.4495 2.375 17.1209 2.375 17.8681C2.375 19.3626 5.56938 20.5754 9.5 20.5754C13.4306 20.5754 16.625 19.3626 16.625 17.8681C16.625 17.1209 15.8294 16.4495 14.5469 15.9622L15.3069 14.9767C17.5512 15.7673 19 17.0126 19 18.4096Z" fill="white"/>
</svg>
