<svg width="81" height="107" viewBox="0 0 81 107" fill="none" xmlns="http://www.w3.org/2000/svg">
<path d="M11.8025 36.5744C10.241 37.5411 8.19 37.0578 7.22335 35.4901C6.2567 33.9285 6.74003 31.8775 8.30774 30.9109L32.6227 14.484C33.546 13.914 34.6303 13.852 35.566 14.2114L72.5094 29.9256C74.2258 30.5886 75.0747 32.5158 74.4117 34.226C73.7486 35.9424 71.8215 36.7913 70.1113 36.1283L34.7047 22.4589L11.7963 36.5682L11.8025 36.5744Z" fill="white" stroke="white" stroke-width="0.288"/>
<path d="M6.07699 29.0705C4.51548 30.0372 2.46445 29.5538 1.4978 27.9861C0.531149 26.4246 1.01447 24.3736 2.58218 23.4069L31.5631 1.49623C32.4863 0.926156 33.5707 0.864191 34.5064 1.22359L78.5323 22.2854C80.2487 22.9484 81.0976 24.8755 80.4346 26.5857C79.7716 28.3022 77.8445 29.1511 76.1343 28.488L33.6451 10.1279L6.07699 29.0643V29.0705Z" fill="white" stroke="white" stroke-width="0.288"/>
<path fill-rule="evenodd" clip-rule="evenodd" d="M47.2277 40.2428C47.2277 48.7691 47.2277 57.2954 47.2277 65.8094C47.2277 74.3295 47.2277 82.8559 47.2277 91.3698C50.4437 90.4899 53.449 89.6658 56.2684 88.8912C58.9081 88.1662 61.3867 87.4908 63.7227 86.8526C63.7227 81.945 63.7227 77.0312 63.7227 72.1236C63.7227 67.216 63.7227 62.3022 63.7227 57.3822C62.5702 57.2583 61.3867 57.1281 60.1722 56.9918C60.1722 61.3975 60.1722 65.8094 60.1722 70.2089C60.1722 74.6084 60.1722 79.0141 60.1722 83.4135C57.613 83.9774 54.8866 84.5723 51.9804 85.2105C51.9804 80.3587 51.9804 75.5069 51.9804 70.6612C51.9804 65.8094 51.9804 60.9513 51.9804 56.0933C51.9804 52.8588 51.9804 49.6242 51.9804 46.3835C54.8866 47.0217 57.613 47.6165 60.1722 48.1742C61.3867 48.4407 62.5702 48.7009 63.7227 48.955C65.9163 49.4383 67.9921 49.8907 69.9626 50.3244C69.9626 52.9083 69.9626 55.4861 69.9626 58.0638C69.9626 62.581 69.9626 67.0982 69.9626 71.6093C69.9626 76.1203 69.9626 80.6313 69.9626 85.1424C69.9626 87.7201 69.9626 90.2978 69.9626 92.8694C67.9921 93.6253 65.9163 94.4185 63.7227 95.2612C60.166 96.6244 56.2746 98.1178 51.9804 99.766C47.2277 101.588 41.936 103.62 36.0059 105.894C36.0059 103.193 36.0059 100.479 36.0059 97.7646C36.0059 96.6678 36.0059 95.5586 36.0059 94.4557C36.0059 84.9131 36.0059 75.3643 36.0059 65.8218C36.0059 56.2792 36.0059 46.7305 36.0059 37.1817C36.0059 36.3824 36.0059 35.5768 36.0059 34.7651C36.0059 31.7474 36.0059 28.7359 36.0059 25.712C43.7515 28.6863 50.4437 31.2517 56.2684 33.4824C61.3805 35.4405 65.9163 37.1817 69.9626 38.7308C69.9626 41.3209 69.9626 43.8987 69.9626 46.4764C66.9697 45.6585 63.7227 44.7662 60.1722 43.7933C56.2746 42.7275 51.9804 41.5502 47.2277 40.2489V40.2428Z" fill="white" stroke="white" stroke-width="0.288"/>
<path fill-rule="evenodd" clip-rule="evenodd" d="M12.5709 38.7308V92.8879L33.7938 105.894V94.4742L19.1577 88.0671V34.6969L12.5709 38.7308Z" fill="white" stroke="white" stroke-width="0.288"/>
<path fill-rule="evenodd" clip-rule="evenodd" d="M31.8853 88.1415L23.2474 85.0618V32.1811L31.8853 26.877V88.1415Z" fill="white" stroke="white" stroke-width="0.288"/>
</svg>
